<?xml version="1.0" encoding="UTF-8"?>
<!DOCTYPE svg PUBLIC "-//W3C//DTD SVG 1.1//EN" "http://www.w3.org/Graphics/SVG/1.1/DTD/svg11.dtd">
<!-- Creator: CorelDRAW 2020 (64-Bit) -->
<svg xmlns="http://www.w3.org/2000/svg" xml:space="preserve" width="12cm" height="12cm" version="1.1" style="shape-rendering:geometricPrecision; text-rendering:geometricPrecision; image-rendering:optimizeQuality; fill-rule:evenodd; clip-rule:evenodd"
viewBox="0 0 12000 12000"
 xmlns:xlink="http://www.w3.org/1999/xlink"
 xmlns:xodm="http://www.corel.com/coreldraw/odm/2003">
 <defs>
  <style type="text/css">
   <![CDATA[
    .str2 {stroke:black;stroke-width:75;stroke-miterlimit:22.9256}
    .str1 {stroke:black;stroke-width:150;stroke-miterlimit:22.9256}
    .str0 {stroke:#C9E265;stroke-width:7.62;stroke-miterlimit:22.9256}
    .fil2 {fill:none}
    .fil1 {fill:black;fill-rule:nonzero}
    .fil0 {fill:#C9E265;fill-rule:nonzero}
   ]]>
  </style>
 </defs>
 <g id="Capa_x0020_1">
  <metadata id="CorelCorpID_0Corel-Layer"/>
  <g id="_1984012010608">
   <path class="fil0 str0" d="M1989.54 6809.48c35.38,147.26 79.62,260.24 132.7,339.71 53.08,78.7 111.91,118.44 175.61,118.44 65.91,0 119.88,-34.28 161.9,-102.85 42.47,-67.79 63.7,-154.28 63.7,-257.13 0,-84.15 -15.92,-159.73 -47.77,-227.52 -31.85,-67 -84.05,-136.35 -156.59,-205.7l-69.01 -66.23c-157.47,-148.04 -252.14,-246.21 -283.99,-294.52 -65.91,-100.52 -112.36,-201.03 -139.78,-300.76 -26.98,-99.74 -40.7,-216.61 -40.7,-349.85 0,-294.53 56.18,-534.51 168.1,-720.73 111.91,-186.22 257.88,-279.72 437.48,-279.72 126.51,0 237.1,50.64 332.2,151.93 95.1,101.3 169.42,247 222.94,437.9l-197.28 242.32c-34.5,-146.48 -78.3,-256.35 -131.38,-329.59 -53.08,-73.24 -116.34,-109.86 -189.76,-109.86 -61.05,0 -111.92,33.5 -152.18,100.51 -40.25,67.01 -60.16,151.16 -60.16,251.67 0,84.93 16.81,159.73 49.99,223.62 33.18,63.9 96.88,138.7 191.98,224.41l32.29 29.6c177.38,155.06 283.99,258.69 320.26,312.45 64.14,92.72 110.15,190.12 138.46,292.97 27.87,102.85 42.02,222.06 42.02,359.2 0,299.98 -59.28,543.86 -178.27,732.42 -118.99,188.56 -273.37,282.84 -463.58,282.84 -135.8,0 -255.68,-52.21 -359.63,-157.4 -104.39,-105.18 -183.57,-253.23 -237.98,-444.9l238.43 -253.23zm1303.6 776.05l0 -3052.79 1085.52 0 0 411.4 -599.82 0 0 888.26 567.97 0 0 411.4 -567.97 0 0 930.33 631.67 0 0 411.4 -1117.37 0zm1478.77 0l0 -3052.79 533.47 0 573.28 1561.46 0 -1561.46 260.1 0 0 3052.79 -282.21 0 -827.2 -2230.76 0 2230.76 -257.44 0zm2064.44 0l0 -2641.39 -461.81 0 0 -411.4 1409.31 0 0 411.4 -461.81 0 0 2641.39 -485.69 0zm1671.63 0l-485.7 0 0 -3052.79 485.7 0 0 3052.79zm425.1 0l0 -3052.79 755.97 0c217.63,0 388.38,83.37 512.68,250.12 123.85,166.74 185.79,394.26 185.79,683.33 0,211.15 -33.62,384.91 -101.3,518.92 -67.24,134.8 -168.1,230.64 -302.13,286.74l418.91 1313.68 -542.76 0 -422.89 -1552.11 108.82 0c120.32,0 209.67,-45.19 268.06,-136.35 58.39,-90.39 87.59,-227.52 87.59,-412.18 0,-194.79 -30.08,-338.94 -90.68,-433.22 -60.61,-93.5 -154.83,-140.25 -283.11,-140.25l-122.53 0 0 2674.11 -472.42 0z"/>
   <path class="fil1" d="M5490.87 8336.54l0 -511.39 -144.78 0 0 -41.49 391.16 0 0 41.49 -144.78 0 0 511.39 -101.6 0zm321.88 0l0 -552.88 342.05 0 0 41.49 -239.6 0 0 202.36 222.67 0 0 41.48 -222.67 0 0 226.06 239.6 0 0 41.49 -342.05 0zm459.74 0l0 -552.88 181.19 0c68.58,0 120.51,13.69 155.64,40.93 35.14,27.37 52.64,67.59 52.64,120.93 0,39.65 -12.42,70.98 -37.4,93.84 -24.97,22.86 -60.53,35.56 -106.54,38.1l146.48 259.08 -114.87 0 -148.45 -280.25c58.14,-3.81 99.21,-14.67 123.19,-32.45 23.99,-17.78 35.99,-45.3 35.99,-82.55 0,-41.07 -11.86,-71.69 -35.56,-91.87 -23.71,-20.18 -59.55,-30.2 -107.53,-30.2l-42.33 0 0 517.32 -102.45 0zm507.58 -182.03l160.87 0 -80.58 -201.65 -80.29 201.65zm-120.37 182.03l227.05 -563.88 236.08 563.88 -109.08 0 -57.57 -147.32 -190.51 0 -57 147.32 -48.97 0zm633.45 -263.31l45.58 0c46,0 80.43,-9.88 103.15,-29.64 22.72,-19.61 34.15,-49.39 34.15,-89.04 0,-45.58 -11.29,-79.45 -33.87,-101.88 -22.72,-22.3 -57.15,-33.45 -103.43,-33.45l-45.58 0 0 254.01zm-102.45 263.31l0 -552.88 197.98 0c58.98,0 105.41,14.68 139.14,44.03 33.72,29.35 50.66,69.43 50.66,120.23 0,49.53 -15.53,88.48 -46.71,116.84 -31.19,28.22 -73.95,42.33 -128.56,42.33l-110.06 0 0 229.45 -102.45 0zm481.61 0l0 -552.88 342.05 0 0 41.49 -239.6 0 0 202.36 222.67 0 0 41.48 -222.67 0 0 226.06 239.6 0 0 41.49 -342.05 0zm458.05 -552.88l102.44 0 0 333.87c0,65.06 9.18,110.35 27.38,135.9 18.2,25.54 48.97,38.24 92.29,38.24 43.18,0 73.94,-12.7 92,-38.24 18.06,-25.55 27.09,-70.84 27.09,-135.9l0 -333.87 49.11 0 0 352.5c0,71.26 -16.23,124.74 -48.54,160.45 -32.46,35.7 -81.14,53.48 -146.19,53.48 -28.93,0 -56.73,-5.22 -83.26,-15.67 -26.67,-10.44 -48.54,-24.83 -65.62,-43.04 -16.79,-17.63 -28.78,-37.81 -35.98,-60.53 -7.2,-22.72 -10.72,-54.19 -10.72,-94.69l0 -352.5zm604.66 552.88l0 -511.39 -144.78 0 0 -41.49 391.16 0 0 41.49 -144.78 0 0 511.39 -101.6 0zm426.02 0l-101.6 0 0 -552.88 101.6 0 0 552.88zm593.52 -130.95c-21.45,46.57 -51.51,82.27 -90.03,107.1 -38.39,24.98 -83.12,37.4 -134.2,37.4 -75.78,0 -138.85,-27.1 -188.95,-81.42 -50.24,-54.33 -75.35,-123.76 -75.35,-208.29 0,-82.4 25.68,-151.13 77.18,-206.16 51.37,-54.89 115.15,-82.41 191.21,-82.41 46.43,0 86.64,9.46 120.65,28.51 34.01,19.05 62.23,47.55 84.53,85.51l-33.02 23.14c-17.08,-33.58 -38.24,-58.84 -63.5,-75.63 -25.26,-16.8 -54.33,-25.12 -87.49,-25.12 -55.46,0 -99.34,22.86 -131.8,68.58 -32.31,45.86 -48.54,108.23 -48.54,187.39 0,76.35 15.38,135.61 46.28,177.81 30.91,42.19 74.23,63.21 129.97,63.21 37.25,0 70.27,-10.3 99.06,-30.76 28.78,-20.6 52.35,-50.66 70.55,-90.31l33.45 21.45zm499.39 -144.5c0,-75.49 -16.09,-136.6 -48.4,-183.45 -32.18,-46.84 -73.66,-70.27 -124.32,-70.27 -50.38,0 -91.87,23.43 -124.18,70.27 -32.31,46.85 -48.54,107.96 -48.54,183.45 0,75.35 16.23,136.31 48.54,183.16 32.31,46.85 73.8,70.28 124.18,70.28 50.37,0 91.86,-23.43 124.18,-70.14 32.31,-46.7 48.54,-107.81 48.54,-183.3zm-172.72 289c-38.53,0 -74.79,-6.92 -108.66,-20.89 -34.01,-13.97 -64.35,-34.43 -91.44,-61.38 -26.67,-26.67 -46.99,-57.72 -60.96,-92.99 -13.97,-35.28 -20.88,-73.1 -20.88,-113.74 0,-41.06 7.05,-79.16 21.02,-114.44 14.11,-35.28 34.72,-66.18 61.67,-92.57 26.95,-26.53 57.57,-46.85 91.72,-60.96 34.29,-14.25 69.99,-21.31 107.53,-21.31 30.05,0 59.26,4.66 87.63,14.11 28.36,9.32 55.03,23 79.87,40.92 37.11,26.96 65.61,60.68 85.51,101.04 19.9,40.36 29.78,84.81 29.78,133.21 0,40.78 -7.06,78.74 -21.31,113.88 -14.11,35.13 -34.72,66.18 -61.81,92.85 -27.23,26.95 -57.85,47.41 -91.72,61.38 -34.01,13.97 -69.85,20.89 -107.95,20.89z"/>
   <circle class="fil2 str1" cx="6077.06" cy="6063.82" r="5500"/>
   <g>
    <path class="fil2 str2" d="M1971.26 3602.83c-835.26,-183.78 -961.23,770.92 -575.71,1270 190.71,241.72 864.71,-1069.88 1563.29,-2345.42 106.39,-171.91 192.73,-131.5 128.29,150.79 -258.51,968.15 -491.91,1903.97 -635.17,2723.78 -8.16,49.64 15.09,48.32 105.77,-36.98"/>
    <line class="fil2 str2" x1="1484.83" y1="3937.05" x2="3165.88" y2= "4021.72" />
    <path class="fil2 str2" d="M3471.02 3947.64l197.17 -378.36c28.06,-58.91 -55.77,-96.26 -123.7,-19.34 -183.99,177.54 -222.08,314.54 -75.98,400.34 98.56,42.99 196.85,11.46 315.55,-70.2 69.45,-47.78 72.25,-10.42 53.98,35.55l-174.75 599.19c-27.05,156.63 45.38,211.29 162.04,92.96l445.92 -591.35 345.43 -1270.01"/>
    <path class="fil2 str2" d="M4271.25 4016.43l-267.36 1448.83c-7.68,41.52 -5.06,46.56 28.86,27.44l65.78 -36.95"/>
    <path class="fil2 str2" d="M4536.28 3965.24l213.13 -196.78c135.36,-115.44 37.67,-201.2 -33.27,-108.94 -127.82,165.68 -388.62,613.09 -139.77,764.35 159.17,43.43 382.01,-135.13 633.27,-486.84"/>
    <path class="fil2 str2" d="M3658.49 3225.73l2245.24 -15.87c44.1,7.11 78.71,28.17 103.63,63.5"/>
   </g>
  </g>
 </g>
</svg>
